<svg width="18" height="18" viewBox="0 0 18 18" fill="none" xmlns="http://www.w3.org/2000/svg">
<path fill-rule="evenodd" clip-rule="evenodd" d="M9 16C12.866 16 16 12.866 16 9C16 5.13401 12.866 2 9 2C5.13401 2 2 5.13401 2 9C2 12.866 5.13401 16 9 16ZM9 18C13.9706 18 18 13.9706 18 9C18 4.02944 13.9706 0 9 0C4.02944 0 0 4.02944 0 9C0 13.9706 4.02944 18 9 18Z" fill="#7D828B"/>
<path fill-rule="evenodd" clip-rule="evenodd" d="M4.80501 5.41895C4.70321 5.0457 5.0457 4.70322 5.41895 4.80501L11.5287 6.47131L13.195 12.5811C13.2968 12.9543 12.9543 13.2968 12.5811 13.195L6.4713 11.5287L4.80501 5.41895ZM7.42522 7.42522L8.10012 9.89988L10.5748 10.5748L9.89987 8.10013L7.42522 7.42522Z" fill="#7D828B"/>
</svg>
