<svg width="17" height="18" viewBox="0 0 17 18" fill="none" xmlns="http://www.w3.org/2000/svg">
<path d="M0.5 13H2.5V16L14.5 16V13H16.5V18H0.5L0.5 13Z" fill="#7D828B"/>
<path d="M7.88707 13.5L3.62362 9.23654C3.22397 8.8369 3.22397 8.18895 3.62362 7.7893C4.01013 7.40279 4.63215 7.38826 5.03629 7.75631L7.5 10V1.5C7.5 0.947716 7.94771 0.5 8.5 0.5C9.05228 0.5 9.5 0.947715 9.5 1.5V10L11.7968 7.78628C12.1929 7.40451 12.8218 7.4103 13.2108 7.7993C13.6049 8.19342 13.6049 8.83242 13.2108 9.22654L8.93733 13.5L8.4122 14L7.88707 13.5Z" fill="#7D828B"/>
</svg>
