<svg width="20" height="12" viewBox="0 0 20 12" fill="none" xmlns="http://www.w3.org/2000/svg">
<path fill-rule="evenodd" clip-rule="evenodd" d="M8.51032 0.208029C9.49466 0.0214763 10.5053 0.0214773 11.4896 0.208032C12.5583 0.410564 13.5146 0.891844 14.5652 1.60895C15.5935 2.3109 16.7785 3.28678 18.2881 4.52998L18.3258 4.56102C18.334 4.56783 18.3424 4.57471 18.3508 4.58166C18.4849 4.69194 18.6392 4.8189 18.7603 4.94219C18.8983 5.0825 19.089 5.31012 19.1705 5.64374C19.2278 5.87776 19.2278 6.12213 19.1705 6.35615C19.089 6.68977 18.8983 6.91739 18.7604 7.0577C18.6392 7.18099 18.4849 7.30796 18.3508 7.41825C18.3424 7.42519 18.334 7.43207 18.3258 7.43887L18.288 7.46993C16.7785 8.71312 15.5935 9.68899 14.5652 10.3909C13.5147 11.108 12.5583 11.5893 11.4897 11.7918C10.5053 11.9784 9.49465 11.9784 8.5103 11.7918C7.44166 11.5893 6.48528 11.108 5.43477 10.3909C4.40645 9.68897 3.22146 8.71309 1.71187 7.46988L1.67419 7.43885C1.66592 7.43204 1.65757 7.42516 1.64913 7.41822C1.51509 7.30793 1.36078 7.18096 1.23959 7.05767C1.10168 6.91737 0.910961 6.68974 0.829405 6.35612C0.772196 6.1221 0.772197 5.87774 0.829407 5.64372C0.910964 5.3101 1.10168 5.08247 1.2396 4.94216C1.36079 4.81887 1.51509 4.69191 1.64913 4.58162C1.65757 4.57468 1.66593 4.5678 1.67419 4.56099L1.71188 4.52996C3.22147 3.28676 4.40646 2.31088 5.43478 1.60893C6.4853 0.891836 7.44168 0.410559 8.51032 0.208029ZM11.1172 2.17305C10.379 2.03314 9.62099 2.03314 8.88273 2.17305C8.18929 2.30447 7.49387 2.62491 6.56235 3.26078C5.64319 3.88821 4.56235 4.77359 3.07303 5.99992C4.56235 7.22626 5.64319 8.11165 6.56235 8.73908C7.49386 9.37496 8.18928 9.6954 8.88272 9.82682C9.62099 9.96674 10.379 9.96674 11.1172 9.82682C11.8107 9.6954 12.5061 9.37496 13.4376 8.73909C14.3568 8.11166 15.4376 7.22628 16.9269 5.99994C15.4376 4.7736 14.3567 3.88822 13.4376 3.26079C12.5061 2.62491 11.8106 2.30447 11.1172 2.17305ZM17.3385 6.34892C17.3385 6.34893 17.3382 6.34858 17.3376 6.34789L17.3385 6.34892Z" fill="#737373"/>
<path d="M12 5.99994C12 7.10451 11.1045 7.99994 9.99997 7.99994C8.8954 7.99994 7.99997 7.10451 7.99997 5.99994C7.99997 4.89537 8.8954 3.99994 9.99997 3.99994C11.1045 3.99994 12 4.89537 12 5.99994Z" fill="#737373"/>
</svg>
