<svg width="20" height="18" viewBox="0 0 20 18" fill="none" xmlns="http://www.w3.org/2000/svg">
<path fill-rule="evenodd" clip-rule="evenodd" d="M10 0.73291L19.614 8.21042C20.0499 8.54949 20.1285 9.17776 19.7894 9.61371C19.4503 10.0497 18.8221 10.1282 18.3861 9.78913L17.0001 8.71109V16.9998C17.0001 17.5521 16.5523 17.9998 16.0001 17.9998H4.00006C3.44778 17.9998 3.00006 17.5521 3.00006 16.9998V8.71107L1.61399 9.78912C1.17804 10.1282 0.549765 10.0497 0.210694 9.61371C-0.128376 9.17777 -0.0498422 8.54949 0.386105 8.21042L10 0.73291ZM9.00006 15.9998H11.0001V11.9998H9.00006V15.9998ZM13.0001 15.9998V9.99979H7.00006V15.9998H5.00006V7.72205L10.0001 3.59347L15.0001 7.72205V15.9998H13.0001Z" fill="#7D828B"/>
</svg>
