<svg width="117" height="24" viewBox="0 0 117 24" fill="none" xmlns="http://www.w3.org/2000/svg">
<path d="M7.38831 12.0008C7.38831 9.06076 9.7713 6.67725 12.7114 6.67725C15.6515 6.67725 18.034 9.06076 18.034 12.0008C18.034 14.9403 15.6515 17.3238 12.7114 17.3238C9.7713 17.3238 7.38831 14.9403 7.38831 12.0008Z" fill="#6EC72D"/>
<path d="M16.4029 5.25774C16.4029 3.57311 17.7689 2.20717 19.4536 2.20717C21.1388 2.20717 22.5053 3.57311 22.5053 5.25774C22.5053 6.94292 21.1388 8.30885 19.4536 8.30885C17.7689 8.30885 16.4029 6.94292 16.4029 5.25774ZM0.682251 12.0006C0.682251 5.37746 6.04738 0.00808881 12.668 0V4.33669C8.44172 4.34424 5.01851 7.77229 5.01851 12.0006C5.01851 16.2332 8.44984 19.664 12.682 19.664C16.8893 19.664 20.346 16.2656 20.346 11.9715L24.6823 11.9741C24.6823 18.6279 19.3101 24 12.682 24C6.05442 24 0.682251 18.6279 0.682251 12.0005" fill="#00674C"/>
<path d="M55.9461 15.8011C57.0578 15.9316 58.2655 15.5703 59.085 14.9044C60.0229 14.125 60.8659 12.5166 60.8659 10.7705C60.8659 8.8419 59.6015 8.6123 59.1319 8.6123C58.4529 8.6123 57.9377 8.95669 57.4459 9.27813L55.9461 15.8011ZM57.8441 7.00513C58.4529 6.59186 59.4597 5.90186 60.9829 5.90186C63.3245 5.90186 64.8946 7.62383 64.8946 10.5409C64.8946 12.1952 64.3092 14.1468 63.0903 15.5944C60.7722 18.3725 57.844 18.3496 55.3607 18.3496L54.0273 23.8393L53.8646 23.9541C53.3248 23.9541 52.8096 23.93 52.2711 23.93C51.475 23.93 50.7725 23.9771 49.9061 24L49.7878 23.8393C49.7878 23.8393 50.6135 21.4044 51.6401 17.2197C52.7184 12.8284 53.7265 7.68425 53.8153 6.63657L53.9792 6.47585L57.9845 5.83419L58.1262 5.9937L57.8441 7.00513ZM49.3688 18.097L49.1814 18.2807C48.4309 18.4197 47.5509 18.5333 47.0728 18.5333C45.3043 18.5333 42.7089 18.271 43.8082 13.8966C44.5488 10.9385 45.0825 8.7271 45.0825 8.7271L43.4422 8.77301L43.3016 8.58934L43.9819 6.26921L44.1458 6.15562H45.6913L46.3703 3.19142L46.5342 3.03191C48.2916 2.6416 48.7587 2.5256 50.3756 2.06641L50.5161 2.20416L49.4858 6.20154L51.8742 6.15562L51.9688 6.31513C51.6397 7.27943 51.5461 7.5332 51.2417 8.6123L51.0544 8.77301L48.9002 8.7271C48.9002 8.7271 48.4626 10.5095 47.8502 12.9903C47.1883 15.6742 47.5358 15.5364 48.1989 15.7926C48.7658 16.0125 49.509 15.7322 49.9304 15.5944L50.0709 15.7092L49.3685 18.097H49.3688ZM36.277 8.31383C35.1752 8.31383 33.9292 8.86365 33.2095 12.2085C32.4097 15.9304 34.0044 16.1684 34.7784 16.1684C35.4809 16.1684 36.977 15.7926 37.7201 12.229C38.2414 9.73732 37.8285 8.31383 36.277 8.31383ZM41.7464 12.229C40.7395 17.8614 37.1655 18.5792 34.14 18.5792C31.1539 18.5792 28.4007 16.5624 29.1796 12.2012C29.7883 8.79235 31.8527 5.63843 36.871 5.87891C40.371 6.04687 42.4303 8.39962 41.7464 12.229Z" fill="#00674C"/>
<path d="M110.931 11.3167L114.561 18.0921L114.42 18.2758L111.821 18.3447L111.634 18.2058C111.026 16.5926 108.378 11.5233 108.378 11.5233C107.699 14.4404 107.558 15.1292 106.972 18.1599L106.809 18.2988L104.443 18.3447L104.349 18.2058C104.349 18.2058 105.599 13.1136 106.679 8.39962C107.186 6.1955 107.972 2.70565 108.284 0.590954L108.447 0.453196L111 0.0399228L111.142 0.20064C110.67 1.78727 108.447 11.2019 108.447 11.2019C110.126 9.75907 112.921 6.88429 113.296 6.49398L113.554 6.35622H116.248L116.318 6.56286C115.652 7.07764 114.42 8.17003 113.975 8.56034L110.931 11.3167L110.931 11.3167ZM101.98 18.1658L101.794 18.3036L99.4046 18.3724L99.3109 18.2129C99.6547 16.6662 101.097 11.4858 101.115 9.87498C101.13 8.49741 100.249 8.03822 99.147 8.03822C97.6953 8.03822 96.7339 8.74996 96.0316 9.25628C95.1651 13.1135 94.8841 14.3303 94.1348 18.1658L93.9697 18.3036L91.5825 18.3724L91.4642 18.2129C91.4642 18.2129 92.1753 15.4009 92.8174 12.4778C93.3203 10.1891 93.7331 8.30402 93.9229 6.72947L94.088 6.56876C95.1885 6.431 95.4461 6.38508 96.5713 6.15548L96.6884 6.31499L96.3606 7.48593C97.2737 6.89019 98.4445 6.0854 100.388 6.0854C101.161 6.0854 103.691 6.29324 103.691 9.07135C103.691 10.7329 102.21 16.5441 101.98 18.1658V18.1658ZM88.6494 8.08418C88.2969 8.08418 87.9469 8.06127 87.5944 8.06127C86.8218 8.06127 85.2997 8.10719 83.917 9.02678C81.4584 10.6787 81.4114 13.6417 81.4114 13.7577C81.4114 14.8597 82.0203 16.6276 84.1511 16.6276C84.7846 16.6276 85.8296 16.4826 86.9622 15.5014L88.6494 8.08423V8.08418ZM90.3821 11.0013C89.5626 14.5382 89.3987 15.4107 88.9304 18.1441L88.7652 18.3036L86.5641 18.3495L86.447 18.1888L86.611 17.2716C86.213 17.5919 85.1827 18.4414 83.1911 18.4414C80.8014 18.4414 78.858 16.7883 78.858 13.9171C78.858 12.1033 79.7477 10.1276 80.7324 8.9796C82.9101 6.4758 85.9319 6.33805 88.0874 6.33805L91.3188 6.36221L91.4359 6.54468L90.3821 11.0013ZM67.9636 16.5128C69.2884 16.5732 71.243 16.5358 72.765 15.5255C74.4977 14.3534 75.3185 12.31 75.3185 10.8393C75.3185 8.75001 74.0294 7.94643 72.5308 7.94643C71.3354 7.94643 70.4924 8.45153 69.7431 8.91073C69.7431 8.91073 68.109 15.9497 67.9636 16.5128ZM65.1056 18.1888C65.2621 17.4928 66.2714 13.412 67.3043 8.82251C68.1866 4.88676 68.8016 2.43129 69.0173 0.596944L69.2046 0.435018L71.7582 0L71.8752 0.160711L71.2196 2.71044L70.1412 7.11988C71.1259 6.59181 72.0613 6.08549 73.5611 6.08549C75.8793 6.08549 77.8241 7.62378 77.8241 10.5191C77.8241 11.69 77.4494 13.8942 75.8793 15.6633C73.7718 18.0293 71.1727 18.1888 68.1509 18.3036H66.8631L65.2227 18.3265L65.1056 18.1888V18.1888Z" fill="#6EC72D"/>
</svg>
